# xmcd
#
# Track frame offsets: 
#        150
#        21465
#        36915
#        58648
#        69823
#        84123
#        98357
#        111650
#        127916
#        139579
#        153432
#        172095
#
# Disc length: 2487 seconds
#
# Revision: 0
# Processed by: cddbd v1.5.2PL0 Copyright (c) Steve Scherf et al.
# Submitted via: ExactAudioCopy v0.99pb4
#
DISCID=9609b50c
DTITLE=Malcolm Holcombe - For The Mission Baby
DYEAR=2009
DGENRE=Country
TTITLE0=Bigtime Blues
TTITLE1=Hannah's Tradin' Post
TTITLE2=Leonard's Pigpen
TTITLE3=You Have It All
TTITLE4=Short Street Blues
TTITLE5=A Bigger Plan
TTITLE6=For The Mission Baby
TTITLE7=Another One Gone
TTITLE8=Doncha Miss That Water
TTITLE9=Straight And Tall
TTITLE10=Whenever I Pray
TTITLE11=Someone Left Behind
EXTD=
EXTT0=
EXTT1=
EXTT2=
EXTT3=
EXTT4=
EXTT5=
EXTT6=
EXTT7=
EXTT8=
EXTT9=
EXTT10=
EXTT11=
PLAYORDER=
